<?xml version="1.0" encoding="UTF-8"?>
<!DOCTYPE svg PUBLIC "-//W3C//DTD SVG 1.0//EN" "http://www.w3.org/TR/2001/REC-SVG-20010904/DTD/svg10.dtd">
<!-- Creator: CorelDRAW 2020 (64-Bit) -->
<svg xmlns="http://www.w3.org/2000/svg" xml:space="preserve" width="210mm" height="297mm" version="1.0" style="shape-rendering:geometricPrecision; text-rendering:geometricPrecision; image-rendering:optimizeQuality; fill-rule:evenodd; clip-rule:evenodd"
viewBox="0 0 21000 29700"
 xmlns:xlink="http://www.w3.org/1999/xlink"
 xmlns:xodm="http://www.corel.com/coreldraw/odm/2003">
 <defs>
  <style type="text/css">
   <![CDATA[
    .str0 {stroke:black;stroke-width:564.44;stroke-miterlimit:22.9256}
    .fil0 {fill:none}
    .fil1 {fill:black}
   ]]>
  </style>
 </defs>
 <g id="Capa_x0020_1">
  <metadata id="CorelCorpID_0Corel-Layer"/>
  <g id="_1722158424800">
   <ellipse class="fil0 str0" cx="10771.3" cy="14463.56" rx="7565.2" ry="7506.56"/>
   <path class="fil1" d="M12896.66 18196.23l1085.72 -5015.51 654.07 -3529.47c0,0 -568.26,-20.56 -1332.64,-18.65l-2021.42 9111.77c-161.19,17.66 -418.93,44.54 -720.36,18.55l1678.98 -7936.39 -1425.91 22.25 -1714.48 7554.23c-118.84,-55.04 -231.85,-110.03 -353.3,-185.32 -86.9,-53.88 -172.21,-101.73 -246.08,-155.13l1224.57 -5510.41c0,0 -1455.96,-45.9 -1455.96,-45.9l-991.58 4247.15c-186.74,-279.49 -578.23,-1133.43 -549.2,-2134.86 154.7,-2295.08 1729.88,-3634.13 3441.56,-3888.06l133.75 -565.18c-1369.87,167.92 -2194.43,784.34 -2776.72,1322.46 -488,491.24 -609.51,756.79 -828.51,1122.13 -225.89,460.51 -123.81,228.06 -371.02,953.09 -805.87,3605.37 2222.17,6337.44 5489.12,5631.31 980.67,-299.48 1356.22,-450.93 2137.88,-1108.9 566.44,-597.45 1084.97,-1226.98 1350.11,-2388.3 334.91,-1372.14 -171.63,-2791.74 -533.61,-3294.66l-181.8 834.23c-11.63,53.38 553.78,1012.84 119.48,2614.45 -263.29,1032.09 -1116.38,2028.71 -1812.65,2345.12z"/>
  </g>
 </g>
</svg>
